<?xml version="1.0" encoding="UTF-8"?>
<svg width="9px" height="16px" viewBox="0 0 9 16" version="1.1" xmlns="http://www.w3.org/2000/svg" xmlns:xlink="http://www.w3.org/1999/xlink">
    <!-- Generator: Sketch 48.2 (47327) - http://www.bohemiancoding.com/sketch -->
    <title>Shape Copy</title>
    <desc>Created with Sketch.</desc>
    <defs></defs>
    <g id="Page-1" stroke="none" stroke-width="1" fill="none" fill-rule="evenodd">
        <path d="M1.19481569,0.190269697 C0.91518654,-0.0723057865 0.477717734,-0.0618462288 0.210849827,0.213795598 C0.0762054462,0.342565525 0,0.521123113 0,0.707839508 C0,0.894555903 0.0762054462,1.07311349 0.210849827,1.20188342 L7.26260515,8.00086866 L0.210849827,14.7998539 C0.0762054462,14.9286238 0,15.1071814 0,15.2938978 C0,15.4806142 0.0762054462,15.6591718 0.210849827,15.7879417 C0.335561896,15.9281514 0.515716819,16.0056841 0.702832756,15.9996748 C0.884092141,15.9987277 1.05887176,15.9318661 1.19481569,15.8114676 L8.78540946,8.51843847 C8.92275546,8.3815181 9,8.19521241 9,8.00086866 C9,7.80652491 8.92275546,7.62021922 8.78540946,7.48329885 L1.19481569,0.190269697 Z" id="Shape-Copy" fill="#00ADFF" fill-rule="nonzero" transform="translate(4.500000, 8.000000) rotate(360.000000) translate(-4.500000, -8.000000) "></path>
    </g>
</svg>