<?xml version="1.0" encoding="UTF-8"?>
<svg width="16px" height="9px" viewBox="0 0 16 9" version="1.1" xmlns="http://www.w3.org/2000/svg" xmlns:xlink="http://www.w3.org/1999/xlink">
    <!-- Generator: Sketch 48.2 (47327) - http://www.bohemiancoding.com/sketch -->
    <title>Shape</title>
    <desc>Created with Sketch.</desc>
    <defs></defs>
    <g id="Header-1360" stroke="none" stroke-width="1" fill="none" fill-rule="evenodd" transform="translate(-1282.000000, -38.000000)">
        <path d="M1286.69482,34.6902697 C1286.41519,34.4276942 1285.97772,34.4381538 1285.71085,34.7137956 C1285.57621,34.8425655 1285.5,35.0211231 1285.5,35.2078395 C1285.5,35.3945559 1285.57621,35.5731135 1285.71085,35.7018834 L1292.76261,42.5008687 L1285.71085,49.2998539 C1285.57621,49.4286238 1285.5,49.6071814 1285.5,49.7938978 C1285.5,49.9806142 1285.57621,50.1591718 1285.71085,50.2879417 C1285.83556,50.4281514 1286.01572,50.5056841 1286.20283,50.4996748 C1286.38409,50.4987277 1286.55887,50.4318661 1286.69482,50.3114676 L1294.28541,43.0184385 C1294.42276,42.8815181 1294.5,42.6952124 1294.5,42.5008687 C1294.5,42.3065249 1294.42276,42.1202192 1294.28541,41.9832989 L1286.69482,34.6902697 Z" id="Shape" fill="#00ADFF" fill-rule="nonzero" transform="translate(1290.000000, 42.500000) rotate(450.000000) translate(-1290.000000, -42.500000) "></path>
    </g>
</svg>