<?xml version="1.0" encoding="UTF-8"?>
<svg width="16px" height="9px" viewBox="0 0 16 9" version="1.1" xmlns="http://www.w3.org/2000/svg" xmlns:xlink="http://www.w3.org/1999/xlink">
    <!-- Generator: Sketch 48.2 (47327) - http://www.bohemiancoding.com/sketch -->
    <title>Shape</title>
    <desc>Created with Sketch.</desc>
    <defs></defs>
    <g id="Page-1" stroke="none" stroke-width="1" fill="none" fill-rule="evenodd">
        <path d="M4.69481569,-3.3097303 C4.41518654,-3.57230579 3.97771773,-3.56184623 3.71084983,-3.2862044 C3.57620545,-3.15743448 3.5,-2.97887689 3.5,-2.79216049 C3.5,-2.6054441 3.57620545,-2.42688651 3.71084983,-2.29811658 L10.7626051,4.50086866 L3.71084983,11.2998539 C3.57620545,11.4286238 3.5,11.6071814 3.5,11.7938978 C3.5,11.9806142 3.57620545,12.1591718 3.71084983,12.2879417 C3.8355619,12.4281514 4.01571682,12.5056841 4.20283276,12.4996748 C4.38409214,12.4987277 4.55887176,12.4318661 4.69481569,12.3114676 L12.2854095,5.01843847 C12.4227555,4.8815181 12.5,4.69521241 12.5,4.50086866 C12.5,4.30652491 12.4227555,4.12021922 12.2854095,3.98329885 L4.69481569,-3.3097303 Z" id="Shape" fill="#00ADFF" fill-rule="nonzero" transform="translate(8.000000, 4.500000) rotate(630.000000) translate(-8.000000, -4.500000) "></path>
    </g>
</svg>